<svg xmlns="http://www.w3.org/2000/svg" width="1280" height="720">
  <style>
    .title { font: 700 30px Arial, sans-serif; fill: #111827; }
    .axis { stroke: #374151; stroke-width: 2; }
    .grid { stroke: #e5e7eb; stroke-width: 1; }
    .tick { font: 16px Arial, sans-serif; fill: #374151; }
    .xlabel { font: 18px Arial, sans-serif; fill: #111827; }
    .ylabel { font: 18px Arial, sans-serif; fill: #111827; }
  </style>
  <rect width="100%" height="100%" fill="#ffffff" />
  <text x="110" y="42" class="title">RMSE Trend (1-minute buckets)</text>
  <line x1="110" y1="600" x2="1060" y2="600" class="axis" />
  <line x1="110" y1="80" x2="110" y2="600" class="axis" />
  <line x1="110" y1="80.00" x2="1060" y2="80.00" class="grid" /><text x="100" y="85.00" text-anchor="end" class="tick">372.51</text><line x1="110" y1="184.00" x2="1060" y2="184.00" class="grid" /><text x="100" y="189.00" text-anchor="end" class="tick">292.49</text><line x1="110" y1="288.00" x2="1060" y2="288.00" class="grid" /><text x="100" y="293.00" text-anchor="end" class="tick">212.47</text><line x1="110" y1="392.00" x2="1060" y2="392.00" class="grid" /><text x="100" y="397.00" text-anchor="end" class="tick">132.45</text><line x1="110" y1="496.00" x2="1060" y2="496.00" class="grid" /><text x="100" y="501.00" text-anchor="end" class="tick">52.43</text><line x1="110" y1="600.00" x2="1060" y2="600.00" class="grid" /><text x="100" y="605.00" text-anchor="end" class="tick">-27.59</text><line x1="110.00" y1="80" x2="110.00" y2="600" class="grid" /><text x="110.00" y="630.00" text-anchor="middle" class="tick">0</text><line x1="300.00" y1="80" x2="300.00" y2="600" class="grid" /><text x="300.00" y="630.00" text-anchor="middle" class="tick">6</text><line x1="490.00" y1="80" x2="490.00" y2="600" class="grid" /><text x="490.00" y="630.00" text-anchor="middle" class="tick">11</text><line x1="680.00" y1="80" x2="680.00" y2="600" class="grid" /><text x="680.00" y="630.00" text-anchor="middle" class="tick">17</text><line x1="870.00" y1="80" x2="870.00" y2="600" class="grid" /><text x="870.00" y="630.00" text-anchor="middle" class="tick">22</text><line x1="1060.00" y1="80" x2="1060.00" y2="600" class="grid" /><text x="1060.00" y="630.00" text-anchor="middle" class="tick">28</text>
  <polyline points="110.00,115.86 143.93,184.80 177.86,193.01 211.79,176.44 245.71,117.51 279.64,174.23 313.57,186.09 347.50,201.55 381.43,172.09 415.36,166.04 449.29,150.12 483.21,198.44 517.14,184.62 551.07,185.76 585.00,179.33 618.93,185.33 652.86,199.43 686.79,178.00 720.71,175.90 754.64,153.35 788.57,168.54 822.50,182.35 856.43,199.29 890.36,144.77 924.29,178.57 958.21,172.81 992.14,188.54 1026.07,171.93 1060.00,544.71" fill="none" stroke="#1b9e77" stroke-width="2.8" stroke-linejoin="round" stroke-linecap="round" /><polyline points="110.00,116.36 146.54,185.22 183.08,193.56 219.62,176.90 256.15,117.94 292.69,174.69 329.23,186.63 365.77,202.08 402.31,172.50 438.85,166.52 475.38,150.53 511.92,198.93 548.46,185.03 585.00,186.16 621.54,179.92 658.08,185.84 694.62,199.90 731.15,178.43 767.69,176.41 804.23,153.77 840.77,168.91 877.31,182.72 913.85,199.73 950.38,145.20 986.92,178.88 1023.46,173.36 1060.00,196.34" fill="none" stroke="#d95f02" stroke-width="2.8" stroke-linejoin="round" stroke-linecap="round" /><polyline points="110.00,117.03 146.54,187.53 183.08,194.91 219.62,178.40 256.15,119.73 292.69,176.01 329.23,188.04 365.77,203.70 402.31,174.19 438.85,168.03 475.38,152.77 511.92,200.69 548.46,186.37 585.00,188.07 621.54,181.67 658.08,187.26 694.62,201.46 731.15,179.98 767.69,177.64 804.23,155.48 840.77,170.81 877.31,184.06 913.85,201.55 950.38,146.79 986.92,180.15 1023.46,174.75 1060.00,193.66" fill="none" stroke="#7570b3" stroke-width="2.8" stroke-linejoin="round" stroke-linecap="round" />
  <line x1="1080" y1="94" x2="1108" y2="94" stroke="#1b9e77" stroke-width="4" /><text x="1116" y="100" class="tick">e2e_full_tx_20260505165545</text><line x1="1080" y1="122" x2="1108" y2="122" stroke="#d95f02" stroke-width="4" /><text x="1116" y="128" class="tick">hiereb</text><line x1="1080" y1="150" x2="1108" y2="150" stroke="#7570b3" stroke-width="4" /><text x="1116" y="156" class="tick">uniform</text>
  <text x="585.0" y="690" text-anchor="middle" class="xlabel">sample index</text>
  <text x="30" y="60" class="ylabel">rmse 1m</text>
</svg>
